<svg xmlns="http://www.w3.org/2000/svg" viewBox="0 0 480 240" role="img" aria-label="France illustration">
<defs><linearGradient id="bg" x1="0" y1="0" x2="1" y2="1"><stop offset="0" stop-color="#edf4ff"/><stop offset="1" stop-color="#cde1ff"/></linearGradient></defs>
<rect width="480" height="240" fill="url(#bg)"/>
<circle cx="390" cy="52" r="21" fill="#2563eb" opacity="0.14"/>
<path d="M0 180 C120 150 160 194 284 168 C365 151 411 172 480 154 L480 240 L0 240Z" fill="#f4f8ff"/>
<g transform="translate(210,26)">
  <path d="M56 22 L96 172" stroke="#2563eb" stroke-width="6" stroke-linecap="round"/>
  <path d="M136 22 L96 172" stroke="#2563eb" stroke-width="6" stroke-linecap="round"/>
  <path d="M72 80 h48" stroke="#2563eb" stroke-width="6" stroke-linecap="round"/>
  <path d="M56 22 h80" stroke="#2563eb" stroke-width="6" stroke-linecap="round"/>
  <path d="M66 112 h60" stroke="#2563eb" stroke-width="5" stroke-linecap="round" opacity="0.8"/>
  <path d="M76 142 h40" stroke="#2563eb" stroke-width="5" stroke-linecap="round" opacity="0.8"/>
  <path d="M82 172 h28" stroke="#2563eb" stroke-width="6" stroke-linecap="round"/>
</g>
<g fill="#7aa6f8" opacity="0.55">
  <ellipse cx="138" cy="74" rx="38" ry="14"/><ellipse cx="164" cy="62" rx="24" ry="12"/><ellipse cx="334" cy="88" rx="48" ry="16"/>
</g>
</svg>