<svg xmlns="http://www.w3.org/2000/svg" viewBox="0 0 480 240" role="img" aria-label="Italy illustration">
<defs><linearGradient id="bg" x1="0" y1="0" x2="1" y2="1"><stop offset="0" stop-color="#effbf0"/><stop offset="1" stop-color="#c9f3d2"/></linearGradient></defs>
<rect width="480" height="240" fill="url(#bg)"/>
<rect x="0" y="182" width="480" height="58" fill="#e8f8eb"/>
<circle cx="88" cy="54" r="22" fill="#16a34a" opacity="0.18"/>
<g transform="translate(126,56)">
  <ellipse cx="114" cy="104" rx="124" ry="22" fill="#8fd19e" opacity="0.35"/>
  <path d="M22 42 h184 a18 18 0 0 1 18 18 v42 a18 18 0 0 1 -18 18 h-184 a18 18 0 0 1 -18 -18 v-42 a18 18 0 0 1 18 -18z" fill="#16a34a" opacity="0.18"/>
  <path d="M10 58 h208" stroke="#15803d" stroke-width="8" stroke-linecap="round" opacity="0.55"/>
  <path d="M22 42 h184 a18 18 0 0 1 18 18 v42 a18 18 0 0 1 -18 18 h-184 a18 18 0 0 1 -18 -18 v-42 a18 18 0 0 1 18 -18z" stroke="#15803d" stroke-width="8" fill="none"/>
  <g stroke="#15803d" stroke-width="6" opacity="0.75">
    <path d="M54 42v78"/><path d="M100 42v78"/><path d="M146 42v78"/><path d="M192 42v78"/>
  </g>
  <g stroke="#15803d" stroke-width="6" stroke-linecap="round" opacity="0.9">
    <path d="M238 90 c17 -10 30 -9 40 2"/>
    <path d="M276 88 l16 14"/>
    <path d="M254 99 l-2 18"/>
  </g>
  <circle cx="246" cy="108" r="8" fill="#15803d"/>
  <circle cx="282" cy="108" r="8" fill="#15803d"/>
</g>
<path d="M45 168c48-16 106-11 138 0" stroke="#4bb26e" stroke-width="6" fill="none" stroke-linecap="round" opacity="0.7"/>
</svg>