<svg xmlns="http://www.w3.org/2000/svg" viewBox="0 0 480 240" role="img" aria-label="United Kingdom illustration">
<defs><linearGradient id="bg" x1="0" y1="0" x2="1" y2="1"><stop offset="0" stop-color="#f4efff"/><stop offset="1" stop-color="#dfd0ff"/></linearGradient></defs>
<rect width="480" height="240" fill="url(#bg)"/>
<circle cx="388" cy="56" r="22" fill="#7c3aed" opacity="0.14"/>
<path d="M0 181 C92 166 171 197 252 184 C340 169 403 194 480 176 L480 240 L0 240Z" fill="#f8f4ff"/>
<g transform="translate(140,46)" fill="#7c3aed">
  <rect x="128" y="18" width="36" height="112" rx="8" opacity="0.93"/>
  <rect x="120" y="0" width="52" height="24" rx="8" opacity="0.86"/>
  <circle cx="146" cy="42" r="11" fill="#f6f1ff" opacity="0.9"/>
  <path d="M12 118 h106 l18 -62 h32 l18 62 h40" fill="none" stroke="#7c3aed" stroke-width="8" stroke-linecap="round" stroke-linejoin="round"/>
  <path d="M98 62 c0 -24 18 -41 42 -41 s42 17 42 41" fill="none" stroke="#9a67ff" stroke-width="6" stroke-linecap="round"/>
</g>
<g stroke="#9a67ff" stroke-width="4" stroke-linecap="round" opacity="0.8">
  <path d="M65 78 c16 -18 36 -18 52 0"/>
  <path d="M75 92 c10 -10 21 -10 32 0"/>
</g>
</svg>